<svg width="270" height="73" viewBox="0 0 270 73" fill="none" xmlns="http://www.w3.org/2000/svg">
<g filter="url(#filter0_d_1450_340)">
<path fill-rule="evenodd" clip-rule="evenodd" d="M9 3C6.79086 3 5 4.79086 5 7V61.4334C5 63.6426 6.79086 65.4334 9 65.4334H244.903C247.112 65.4334 248.903 63.6426 248.903 61.4334V43.8155L263.656 37.1135C265.22 36.4032 265.22 34.1821 263.656 33.4717L248.903 26.7697V7C248.903 4.79086 247.112 3 244.903 3H9Z" fill="white"/>
</g>
<path d="M46.5625 23.8281H43.5391V45.1562H46.5625V23.8281ZM28.5859 37.8203L28.8672 40.2578C32.7812 40.2344 37.7148 40.1523 42.25 39.4141L42.1094 37.1875C41.207 37.293 40.2812 37.3867 39.3438 37.457V28.1875H41.2422V25.7969H29.1719V28.1875H31.0469V37.7969C30.1797 37.8086 29.3594 37.8203 28.5859 37.8203ZM33.9531 37.7383V28.1875H36.4375V37.6445C35.6055 37.6914 34.7734 37.7148 33.9531 37.7383ZM66.7656 33.6953H54.625V28.0234H66.6016V25.6094H51.6719V36.0859H66.7656V33.6953ZM49.375 42.5547H68.8984V40.0938H49.375V42.5547ZM73.7031 25.1641H70.8672V35.5H79.375V25.1641H76.6094V28.2109H73.7031V25.1641ZM73.7031 40.0469H85.4688V45.1562H88.4453V37.6562H73.7031V40.0469ZM73.7031 33.1328V30.4844H76.6094V33.1328H73.7031ZM81.0391 36.5781H83.8281V31.4688H85.6094V36.6953H88.4453V23.8516H85.6094V29.0547H83.8281V24.2266H81.0391V36.5781ZM107.688 23.8281H104.734V45.1562H107.688V34.6328H110.828V32.1719H107.688V23.8281ZM90.7422 29.4062H103.281V27.0156H98.5703V24.1562H95.5703V27.0156H90.7422V29.4062ZM91.6094 35.6875C91.5977 38.6641 93.918 40.7617 97.0703 40.7734C100.176 40.7617 102.508 38.6641 102.508 35.6875C102.508 32.7109 100.176 30.5898 97.0703 30.6016C93.918 30.5898 91.5977 32.7109 91.6094 35.6875ZM94.4688 35.6875C94.4688 34.0469 95.5586 33.0391 97.0703 33.0156C98.5586 33.0391 99.6484 34.0469 99.6484 35.6875C99.6484 37.3398 98.5586 38.3242 97.0703 38.3125C95.5586 38.3242 94.4688 37.3398 94.4688 35.6875ZM129.18 25.6797H113.617V28.0469H126.18C126.168 30.5547 126.133 33.5547 125.312 37.5859L128.312 37.8906C129.168 33.3672 129.168 30.3672 129.18 27.6953V25.6797ZM111.602 42.5547H131.055V40.1172H121.539V32.7812H118.562V40.1172H111.602V42.5547ZM145.867 27.4844V25.1406H142.844V27.4609C142.832 30.5195 141.297 33.4375 137.734 34.6094L139.352 36.9531C141.824 36.0625 143.488 34.3164 144.402 32.0781C145.305 34.0586 146.863 35.6289 149.125 36.4609L150.742 34.1172C147.344 32.9805 145.867 30.2383 145.867 27.4844ZM141.648 44.7812H156.297V42.3906H144.672V37.9375H141.648V44.7812ZM148.867 30.7891H152.875V39.6016H155.852V23.8516H152.875V28.375H148.867V30.7891ZM178.07 32.2891H158.617V34.6562H166.82V36.0156H160.867V38.2656H172.75V39.3672H160.891V45.0156H176.266V42.7656H163.82V41.4766H175.703V36.0156H169.82V34.6562H178.07V32.2891ZM161.031 31.1641H175.609V24.4375H161.031V31.1641ZM163.961 28.8672V26.7578H172.633V28.8672H163.961ZM196.281 23.8281H193.281V36.2734H196.281V31.1406H199.164V28.6797H196.281V23.8281ZM179.992 35.2188H190.328V25.0703H187.328V27.7891H182.969V25.0703H179.992V35.2188ZM182.336 44.875H196.797V42.5312H185.312V39.6016H196.398V37.2344H182.336V44.875ZM182.969 32.875V30.1094H187.328V32.875H182.969ZM218.031 23.8281H215.008V45.1562H218.031V23.8281ZM200.172 39.1094L201.742 41.5C209.359 37.9023 211.621 32.5234 211.633 26.0547H201.32V28.3984H208.586C208.105 33.1328 205.68 36.5078 200.172 39.1094ZM225.695 26.0312H222.086L222.391 37.9141H225.391L225.695 26.0312ZM221.945 41.2422C221.922 42.332 222.812 43.2109 223.914 43.2109C224.957 43.2109 225.859 42.332 225.859 41.2422C225.859 40.1641 224.957 39.2852 223.914 39.2969C222.812 39.2852 221.922 40.1641 221.945 41.2422Z" fill="#F1134E"/>
<defs>
<filter id="filter0_d_1450_340" x="0" y="0" width="269.828" height="72.4336" filterUnits="userSpaceOnUse" color-interpolation-filters="sRGB">
<feFlood flood-opacity="0" result="BackgroundImageFix"/>
<feColorMatrix in="SourceAlpha" type="matrix" values="0 0 0 0 0 0 0 0 0 0 0 0 0 0 0 0 0 0 127 0" result="hardAlpha"/>
<feOffset dy="2"/>
<feGaussianBlur stdDeviation="2.5"/>
<feComposite in2="hardAlpha" operator="out"/>
<feColorMatrix type="matrix" values="0 0 0 0 1 0 0 0 0 1 0 0 0 0 1 0 0 0 0.33 0"/>
<feBlend mode="normal" in2="BackgroundImageFix" result="effect1_dropShadow_1450_340"/>
<feBlend mode="normal" in="SourceGraphic" in2="effect1_dropShadow_1450_340" result="shape"/>
</filter>
</defs>
</svg>
